<?xml version="1.0" encoding="UTF-8"?>
<svg id="Capa_1" xmlns="http://www.w3.org/2000/svg" viewBox="0 0 578.52 585.91">
  <defs>
    <style>
      .cls-1 {
        fill: none;
      }

      .cls-2 {
        fill-rule: evenodd;
      }
    </style>
  </defs>
  <g id="_2165799138800">
    <path class="cls-2" d="M206.66,287.17c1.72-24.32,15-46.06,34.49-60.36,30.04-22.05,60.1-46.18,56.62-105.18-1.17-19.8,16.13-50.33,34.41-58.64-13.69-13.54-28.04-19.99-43.04-19.33-34.31,1.5-35.96,30.05-58.82,35.13,10.73-29.18,28.32-43.38,52.1-47.46,17.36-2.98,32.41,2.07,42.49,8.5,13.52,8.63,21.46,19.89,46.22,18.9-43.2,12.93-63.28,40.87-60.23,83.84,11.59,6.1,23.13,17.28,34.62,33.54,16.65,29.83,18.93,60.49,6.84,91.99-13.26,34.55-71.76,103.82-114.1,82.93,22.16-7.32,40.69-17.17,55.58-29.56,51.81-47.48,65.35-93.11,40.63-136.9,8.72,48.27-4.36,87.23-39.23,116.88-52.72,42.63-109.38,32.74-176.36,14.29,46.39,86.93,242.36,84.76,263.66-67.56,3.58-40.65-6.96-73.74-31.61-99.25-16.79-22.19-17.57-42.03-2.34-59.53,23.92-22.99,60.94-34.39,111.06-34.2-11.65-5.97-25.46-10.39-41.44-13.28-9.86-1.78-27.95-.81-43.56-3.3-19.51-3.12-25.18-12.41-41.76-20.7-32.97-16.47-65.19-13.73-96.67,8.23-19.41,15.94-31.21,36.48-35.38,61.62-77.45,48.61-100.77,160.69-30.24,225.91,107.61-2.28,189.16-95.73,137.86-148.46-6.42,47.24-40.35,87.89-101.79,121.94h0ZM298.23,53.17c6.98,0,12.64,5.66,12.64,12.64s-5.66,12.64-12.64,12.64-12.64-5.66-12.64-12.64,5.66-12.64,12.64-12.64ZM350.48,357.03c5.59,2.17,12.83-3.49,16.14-5.81,69.58-48.76,100.49-146.2,54.49-221.45-2.65-4.34-5.77-10.92-9.43-13.12-6.29-3.79-13.4,2.3-11.76,9.12.54,2.24,6.74,11.57,8.42,14.65,34.7,63.8,14.29,151.34-44.92,193.44-7.65,5.44-17.96,9.93-17.62,16.64.14,2.84,2.61,5.73,4.68,6.53h0ZM162.42,261.85c-14.76-23.71-18.33-49.53-12.13-75.94,6.32-26.91,13.32-35.88,26.85-54.84,23.65-31.04,65.64-34.35,96.76-66.26,9.17,47.57.44,80.43-26.2,98.58,21.96-4.81,33.68,18.54,6.03,23.36-14,2.44-24.88,8.2-33.22,16.02-28.29,26.52-33.95,59.95-26.19,84.58-37.11-36.26-16.11-84.3,19.97-117.51,12.9-11.88,30.57-17.23,37.45-28.8,10.16-17.11,13.73-33.88,10.71-50.33-7.47,7.26-22.92,15.92-46.35,25.98,10.65-2.64,17.55,0,20.7,7.88,4.15,16.96-17.01,14.62-27.59,20.2-35.92,18.95-53.11,55.57-46.77,117.07h0ZM388.61,91.57c4.22,0,7.64,3.42,7.64,7.64s-3.42,7.64-7.64,7.64-7.64-3.42-7.64-7.64,3.42-7.64,7.64-7.64ZM403.58,216.4c3.38,0,6.11,2.74,6.11,6.11s-2.74,6.11-6.11,6.11-6.11-2.74-6.11-6.11,2.74-6.11,6.11-6.11ZM399.41,249.59c2.59,0,4.69,2.1,4.69,4.69s-2.1,4.69-4.69,4.69-4.69-2.1-4.69-4.69,2.1-4.69,4.69-4.69Z"/>
    <path class="cls-2" d="M67.19,457.39c3.66.94,6.68,2.19,9.04,3.77,2.37,1.59,4.24,3.37,5.63,5.36,1.38,1.99,2.34,4.13,2.88,6.43.54,2.3.8,4.67.8,7.08,0,3.22-.56,6.27-1.67,9.18-1.12,2.9-2.93,5.45-5.45,7.66-2.52,2.21-5.83,3.97-9.91,5.27-4.09,1.29-9.11,1.94-15.05,1.94H9.31c-.45,0-.78-.11-1-.31-.22-.2-.33-.42-.36-.67-.02-.25.07-.47.27-.69.2-.22.49-.38.89-.47.54-.09,1.38-.29,2.55-.58,1.16-.29,2.34-.8,3.53-1.56,1.18-.76,2.21-1.79,3.1-3.08.89-1.3,1.34-2.99,1.34-5.09v-65.52c0-2.05-.45-3.75-1.34-5.07s-1.92-2.34-3.1-3.08c-1.18-.74-2.37-1.25-3.53-1.56-1.16-.31-2.01-.51-2.55-.6-.4-.04-.69-.2-.89-.45-.2-.25-.29-.49-.27-.74.02-.25.13-.47.36-.67.22-.2.56-.29,1-.29h46.63c4.69,0,8.62.56,11.77,1.67,3.15,1.12,5.69,2.63,7.64,4.58,1.94,1.94,3.33,4.22,4.15,6.83.83,2.61,1.23,5.4,1.23,8.35,0,2.05-.22,4.11-.67,6.16-.45,2.05-1.18,4.02-2.23,5.89-1.05,1.88-2.46,3.62-4.22,5.23-1.76,1.61-3.95,3.01-6.54,4.22-.27.13-.38.27-.33.42.04.16.2.29.47.38h0ZM41.73,451.49c0,1.25.33,2.23,1.03,2.97.69.74,1.7,1.12,2.97,1.12,1.16,0,2.43-.27,3.84-.8,1.41-.54,2.7-1.59,3.91-3.13,1.21-1.54,2.19-3.71,2.99-6.5.8-2.79,1.21-6.43,1.21-10.94,0-1.96-.07-3.95-.2-5.96-.13-2.01-.49-3.84-1.07-5.47-.58-1.63-1.43-2.95-2.52-3.97-1.12-1.03-2.66-1.54-4.6-1.54-1.61,0-2.9.29-3.91.89s-1.76,1.52-2.3,2.75c-.54,1.23-.89,2.75-1.07,4.56-.18,1.81-.27,3.93-.27,6.34v19.7h0ZM50.62,500.19c1.72,0,3.19-.36,4.35-1.09,1.18-.74,2.17-1.72,2.95-2.9.78-1.21,1.38-2.57,1.81-4.04.42-1.5.71-2.99.89-4.51.18-1.52.29-2.97.33-4.35.04-1.36.07-2.55.07-3.53,0-3.39-.27-6.25-.8-8.57-.54-2.34-1.25-4.27-2.14-5.78-.87-1.52-1.88-2.68-2.97-3.51-1.07-.83-2.17-1.43-3.26-1.81-1.09-.38-2.14-.6-3.15-.67-.98-.07-1.83-.09-2.5-.09-1.36,0-2.46.36-3.26,1.09-.8.74-1.21,1.74-1.21,2.97v20.97c0,2.41.11,4.6.36,6.54.25,1.97.71,3.62,1.38,4.98.67,1.36,1.56,2.41,2.7,3.17,1.14.76,2.61,1.14,4.44,1.14h0Z"/>
    <path id="_1" class="cls-2" d="M115.15,493.23c0,1.83.4,3.3,1.18,4.42.78,1.12,1.67,1.99,2.68,2.63,1,.65,1.99,1.12,2.95,1.38.96.27,1.61.42,1.97.47.36.09.63.22.78.42.16.2.2.42.16.65-.04.22-.16.42-.36.6-.2.18-.49.27-.85.27h-35.1c-.36,0-.63-.09-.83-.27-.2-.18-.33-.38-.38-.6s.02-.45.18-.65c.16-.2.4-.33.76-.42.36-.04,1.03-.2,1.99-.47.96-.27,1.94-.74,2.95-1.38s1.9-1.52,2.68-2.63c.78-1.12,1.16-2.59,1.16-4.42v-75.1c0-.58-.27-.94-.8-1.07-.09,0-.4-.07-.96-.2s-1.21-.29-1.92-.47c-.71-.18-1.36-.33-1.97-.47-.6-.13-.98-.22-1.12-.27-.58-.13-.87-.45-.89-.92-.02-.47.29-.78.96-.96,1.74-.4,3.64-.96,5.67-1.65,2.03-.69,4.06-1.47,6.12-2.34,2.05-.87,4.04-1.81,5.96-2.81,1.92-1.01,3.64-2.01,5.16-3.04.4-.27.83-.38,1.25-.33.42.04.63.38.63,1v88.63Z"/>
    <path id="_2" class="cls-2" d="M186.9,497.96c.63-.13,1.12,0,1.47.38.36.38.38.87.07,1.5-.27.49-.69,1.09-1.3,1.76s-1.41,1.29-2.41,1.88-2.23,1.07-3.68,1.47c-1.45.4-3.15.6-5.11.6-2.72,0-5-.56-6.83-1.65-1.85-1.09-3.13-2.34-3.84-3.77-.18-.36-.45-.51-.78-.47-.34.04-.6.18-.83.4-.13.13-.56.49-1.25,1.09-.69.6-1.67,1.25-2.95,1.94s-2.81,1.32-4.6,1.88-3.84.85-6.16.85c-4,0-7.32-.56-10.05-1.67-2.7-1.12-4.89-2.57-6.56-4.33-1.67-1.76-2.88-3.75-3.62-5.98-.74-2.21-1.12-4.42-1.12-6.61,0-3.53,1.01-6.61,2.99-9.27,1.99-2.63,4.58-4.6,7.75-5.89,1.7-.67,3.48-1.16,5.34-1.45,1.85-.29,3.71-.6,5.54-.92,1.83-.31,3.64-.69,5.4-1.16,1.76-.47,3.44-1.25,5-2.32,1.65-1.12,2.79-2.55,3.44-4.29.65-1.76.98-3.62.98-5.58,0-1.43-.2-2.81-.58-4.13-.38-1.32-.92-2.48-1.61-3.46s-1.5-1.76-2.41-2.34c-.92-.58-1.92-.87-2.99-.87-1.94,0-3.35.49-4.24,1.47s-1.61,2.19-2.12,3.57c-.51,1.38-1,2.84-1.45,4.33-.45,1.52-1.16,2.79-2.14,3.89-.8.85-1.83,1.47-3.1,1.9-1.27.42-2.5.65-3.66.65s-2.28-.2-3.22-.6c-.94-.4-1.74-.96-2.41-1.65-.67-.69-1.16-1.5-1.5-2.41-.33-.92-.51-1.9-.51-2.93,0-1.38.33-2.79,1-4.18.67-1.38,1.88-2.63,3.6-3.75,1.72-1.14,4.02-2.03,6.92-2.72,2.9-.69,6.59-1.05,11.05-1.05,4.96,0,9.2.51,12.71,1.52,3.51,1,6.36,2.46,8.57,4.4,2.21,1.92,3.82,4.29,4.82,7.15,1,2.84,1.5,6.07,1.5,9.69,0,4.35-.13,8.42-.4,12.21-.27,3.82-.45,7.17-.56,10.12-.11,2.93-.07,5.34.16,7.23.22,1.92.85,3.08,1.88,3.53.45.22,1,.33,1.67.31.67-.02,1.38-.11,2.14-.25h0ZM163.66,468.04c0-.27-.11-.45-.34-.54-.22-.09-.42-.02-.6.2-.36.4-.67.78-.96,1.14-.29.36-.69.78-1.18,1.27-.85.89-1.72,1.72-2.61,2.5-.89.78-1.79,1.59-2.68,2.39-.89.71-1.76,1.43-2.63,2.14-.87.71-1.7,1.5-2.46,2.34-1.16,1.34-2.01,2.79-2.57,4.38s-.85,3.28-.85,5.07c0,1.21.18,2.41.54,3.64.36,1.23.92,2.32,1.65,3.28.74.96,1.67,1.74,2.81,2.34,1.14.6,2.5.92,4.11.92s2.93-.34,3.93-1.01c1.01-.67,1.79-1.47,2.34-2.41.56-.94.94-1.9,1.16-2.86.22-.96.34-1.7.34-2.23v-22.58h0Z"/>
    <path id="_3" class="cls-2" d="M223.28,445.8c-1.79,0-3.42.6-4.91,1.83-1.5,1.23-2.79,2.97-3.86,5.2-1.07,2.23-1.9,4.91-2.48,8.06-.58,3.15-.87,6.63-.87,10.43s.49,7.26,1.45,10.27c.96,3.01,2.28,5.58,3.97,7.68s3.68,3.71,5.96,4.82c2.28,1.12,4.73,1.67,7.37,1.67s4.89-.38,7.01-1.14,4-1.61,5.63-2.55c1.63-.94,2.97-1.83,4.02-2.68,1.05-.85,1.76-1.36,2.17-1.54.63-.27,1.14-.22,1.52.16.38.38.36.96-.04,1.72-.27.49-.71,1.23-1.34,2.21-.63.98-1.45,2.08-2.5,3.26-1.05,1.18-2.32,2.41-3.8,3.66-1.47,1.25-3.17,2.41-5.11,3.44-1.94,1.03-4.13,1.88-6.57,2.52s-5.16.98-8.15.98c-4.64,0-8.82-.67-12.53-2.01-3.71-1.34-6.88-3.33-9.51-5.92s-4.64-5.78-6.05-9.56c-1.41-3.77-2.12-8.08-2.12-12.93,0-4.24.54-8.04,1.61-11.34,1.07-3.3,2.5-6.21,4.27-8.66,1.76-2.46,3.77-4.53,6.05-6.23,2.28-1.7,4.62-3.08,7.01-4.13,2.39-1.05,4.73-1.81,7.06-2.28,2.32-.47,4.42-.71,6.3-.71,3.04,0,5.83.27,8.37.83,2.55.56,4.73,1.34,6.57,2.34,1.83,1.01,3.26,2.19,4.29,3.55s1.54,2.84,1.54,4.4c0,1.38-.22,2.55-.69,3.48-.47.94-1.07,1.7-1.81,2.3-.74.6-1.56,1.05-2.48,1.32-.92.27-1.85.4-2.79.4-1.34,0-2.59-.25-3.77-.74-1.18-.49-2.17-1.32-2.93-2.46-.58-.85-1.05-1.94-1.41-3.28-.36-1.32-.76-2.61-1.23-3.86-.47-1.25-1.09-2.3-1.85-3.19-.76-.89-1.88-1.34-3.35-1.34h0Z"/>
    <path id="_4" class="cls-2" d="M332.74,502.07c.63.31.94.71.92,1.23-.02.51-.42.78-1.18.78h-36.44c-.76,0-1.16-.27-1.21-.8-.04-.54.27-.92.94-1.14.67-.18,1.36-.45,2.08-.78s1.32-.76,1.81-1.27.8-1.14.92-1.9c.11-.76-.11-1.67-.65-2.75-.13-.27-.51-.83-1.16-1.65-.65-.83-1.43-1.81-2.34-2.95-.92-1.14-1.9-2.34-2.95-3.64-1.05-1.3-2.08-2.52-3.06-3.68s-1.85-2.19-2.61-3.08c-.76-.89-1.3-1.5-1.61-1.81-.89-.94-1.59-1.61-2.08-2.01-.49-.4-1.05-.6-1.67-.6-.8,0-1.34.22-1.61.69-.27.47-.4,1.16-.4,2.05v14.47c0,1.83.4,3.3,1.18,4.42.78,1.12,1.67,1.99,2.68,2.63,1,.65,1.99,1.12,2.95,1.38.96.27,1.61.42,1.97.47.36.09.63.22.78.42.16.2.2.42.16.65-.04.22-.16.42-.36.6-.2.18-.49.27-.85.27h-35.1c-.36,0-.63-.09-.83-.27-.2-.18-.33-.38-.38-.6s.02-.45.18-.65c.16-.2.4-.33.76-.42.36-.04,1.03-.2,1.99-.47.96-.27,1.94-.74,2.95-1.38s1.9-1.52,2.68-2.63c.78-1.12,1.16-2.59,1.16-4.42v-75.1c0-.58-.27-.94-.8-1.07-.09,0-.4-.07-.96-.2-.56-.13-1.21-.29-1.92-.47-.71-.18-1.36-.33-1.97-.47-.6-.13-.98-.22-1.12-.27-.58-.13-.87-.45-.89-.92-.02-.47.29-.78.96-.96,1.74-.4,3.64-.96,5.67-1.65,2.03-.69,4.06-1.47,6.12-2.34,2.05-.87,4.04-1.81,5.96-2.81,1.92-1.01,3.64-2.01,5.16-3.04.4-.27.83-.38,1.25-.33.42.04.63.38.63,1v64.58c0,1.12.18,1.97.54,2.57.36.6.98.92,1.88.92,1.16,0,2.08-.4,2.75-1.21.94-1.07,2.05-2.46,3.35-4.15,1.3-1.7,2.59-3.48,3.89-5.34,1.3-1.85,2.52-3.66,3.66-5.43s2.05-3.22,2.77-4.38c.85-1.43,1.25-2.57,1.18-3.42-.07-.85-.38-1.5-.92-1.94-.54-.45-1.14-.74-1.83-.87-.69-.13-1.23-.25-1.59-.33-.36-.04-.6-.18-.76-.4s-.22-.45-.18-.67c.04-.22.18-.42.38-.6.2-.18.47-.27.83-.27h19.23c.36,0,.65.09.85.27.2.18.29.38.29.63s-.07.47-.22.67c-.16.2-.42.33-.78.38-.36.04-.94.2-1.74.47-.8.27-1.74.69-2.81,1.27s-2.23,1.32-3.48,2.23c-1.25.92-2.5,2.05-3.75,3.39-.36.36-.92,1.05-1.67,2.08-.76,1.03-1.54,2.1-2.34,3.22-.8,1.12-1.52,2.12-2.14,3.04-.63.92-.96,1.45-1.01,1.59-.27.58-.25,1.09.07,1.54.31.49,1.05,1.47,2.19,2.95,1.14,1.47,2.5,3.22,4.11,5.23,1.61,2.01,3.35,4.13,5.23,6.39,1.88,2.26,3.71,4.42,5.47,6.5,1.76,2.08,3.37,3.93,4.82,5.56,1.45,1.63,2.55,2.81,3.31,3.53,1.12,1.03,2.26,1.97,3.42,2.84,1.16.87,2.26,1.63,3.26,2.28,1,.65,1.88,1.18,2.61,1.59.74.4,1.23.67,1.5.8h0Z"/>
    <path id="_5" class="cls-2" d="M375.32,442.05c3.55,0,6.68.47,9.33,1.41,2.68.94,4.98,2.21,6.9,3.84,1.94,1.61,3.55,3.44,4.8,5.49,1.27,2.05,2.28,4.22,3.01,6.52.74,2.28,1.25,4.56,1.54,6.83.29,2.3.42,4.44.42,6.45,0,5.05-.6,9.62-1.83,13.69-1.23,4.09-3.08,7.57-5.56,10.47-2.48,2.9-5.58,5.16-9.33,6.72-3.75,1.56-8.13,2.34-13.13,2.34-2.79,0-5.27-.18-7.41-.54s-4.11-.87-5.87-1.54c-1.74-.67-3.37-1.52-4.87-2.52-1.5-1-3.01-2.19-4.53-3.53-.18-.13-.33-.22-.49-.27-.16-.04-.36.04-.58.27-.47.4-1.16,1-2.03,1.79-.87.78-1.79,1.65-2.77,2.59-.98.94-1.97,1.88-2.93,2.81-.96.94-1.72,1.74-2.3,2.41-.36.4-.74.51-1.14.36-.4-.16-.6-.51-.6-1.09v-65.25c0-3.26.02-6.27.07-9.04.04-2.77.07-5.18.07-7.23v-6.57c0-.58-.27-.94-.8-1.07-.09,0-.4-.09-.96-.25-.56-.16-1.21-.31-1.92-.47-.71-.16-1.36-.31-1.97-.47s-.98-.22-1.12-.22c-.58-.13-.87-.45-.89-.94-.02-.49.29-.8.96-.94,1.74-.4,3.64-.96,5.67-1.65,2.03-.69,4.06-1.47,6.12-2.34,2.05-.87,4.04-1.81,5.96-2.81,1.92-1.01,3.64-2.01,5.16-3.04.4-.27.83-.38,1.25-.33.42.04.63.38.63,1v46.45c.09.18.25.29.42.33.2.04.38-.04.51-.27.4-.49,1.07-1.27,2.01-2.32.92-1.05,2.21-2.1,3.82-3.15,1.63-1.05,3.64-1.97,6.01-2.75,2.39-.78,5.18-1.18,8.37-1.18h0ZM381.91,475.7c0-1.03,0-2.37-.02-4.02-.02-1.65-.16-3.44-.4-5.36-.25-1.92-.65-3.86-1.16-5.83-.54-1.97-1.32-3.75-2.34-5.31-1-1.56-2.32-2.84-3.91-3.84-1.61-1-3.57-1.52-5.92-1.52-3.01,0-5.45.56-7.26,1.67-1.83,1.12-3.22,2.48-4.2,4.09-.96,1.61-1.61,3.33-1.92,5.14-.31,1.81-.47,3.42-.47,4.8v18.11c0,1.7.18,3.59.56,5.69.38,2.1,1.05,4.09,2.03,5.98.98,1.88,2.3,3.44,4,4.71,1.67,1.27,3.84,1.92,6.45,1.92s4.85-.67,6.68-2.01c1.83-1.34,3.35-3.19,4.53-5.54,1.16-2.34,2.01-5.11,2.55-8.31.54-3.22.8-6.65.8-10.38h0Z"/>
    <path id="_6" class="cls-2" d="M432.08,442.78c0-.63-.2-.96-.63-1-.42-.04-.85.07-1.25.33-1.52,1.03-3.24,2.03-5.16,3.04-1.92,1-3.91,1.94-5.96,2.81-2.05.87-4.09,1.65-6.12,2.34-2.03.69-3.93,1.25-5.67,1.65-.67.18-.98.49-.96.96.02.47.31.78.89.92.13.04.51.13,1.12.27.6.13,1.25.29,1.97.47s1.36.33,1.92.47c.56.13.87.2.96.2.54.13.8.49.8,1.07v37.25c0,1.79-.36,3.22-1.07,4.31-.71,1.09-1.52,1.94-2.43,2.55-.92.6-1.81,1.03-2.68,1.27-.87.25-1.5.4-1.85.45-.36.09-.6.22-.76.42-.16.2-.22.42-.18.65.04.22.18.42.38.6.2.18.47.27.83.27h33.63c.36,0,.65-.09.85-.27.2-.18.31-.38.36-.6s0-.45-.16-.65c-.16-.2-.42-.33-.78-.42-.36-.04-.96-.2-1.83-.45-.87-.25-1.76-.67-2.68-1.27-.92-.6-1.74-1.45-2.46-2.55s-1.07-2.52-1.07-4.31v-50.78h0ZM433.42,422.28c0,1.47-.29,2.86-.87,4.18-.58,1.32-1.38,2.46-2.41,3.42-1.03.96-2.21,1.74-3.57,2.32-1.36.58-2.86.87-4.47.87s-2.99-.29-4.31-.85c-1.32-.56-2.46-1.29-3.42-2.23-.96-.94-1.72-2.05-2.26-3.35-.54-1.29-.8-2.68-.8-4.15s.29-2.88.87-4.2c.58-1.32,1.38-2.46,2.39-3.44,1-.98,2.19-1.76,3.57-2.34,1.38-.58,2.86-.87,4.42-.87s3.08.27,4.4.83c1.32.56,2.46,1.32,3.42,2.28s1.7,2.1,2.23,3.39c.54,1.3.8,2.68.8,4.15h0Z"/>
    <path id="_7" class="cls-2" d="M485.61,442.05c1.88,0,3.46.25,4.76.71,1.3.47,2.34,1.09,3.15,1.88.8.78,1.38,1.7,1.74,2.77.36,1.05.54,2.14.54,3.33,0,2.14-.67,3.82-2.03,5.05-1.36,1.21-3.19,1.81-5.47,1.81-1.74,0-3.1-.31-4.09-.94-.98-.65-1.81-1.34-2.5-2.08s-1.34-1.43-1.92-2.08c-.58-.63-1.3-.94-2.14-.94-.76,0-1.56.27-2.43.78-.87.51-1.67,1.47-2.41,2.9-.74,1.43-1.36,3.39-1.85,5.92-.49,2.5-.74,5.74-.74,9.71v23.2c0,1.81.31,3.22.92,4.24s1.29,1.81,2.08,2.34c.78.54,1.54.89,2.3,1.09.76.2,1.32.33,1.67.38.36.09.63.22.78.42.16.2.2.42.16.65-.04.22-.16.42-.36.6-.2.18-.49.27-.85.27h-31.49c-.36,0-.63-.09-.83-.27-.2-.18-.33-.38-.38-.6s.02-.45.18-.65c.16-.2.4-.33.76-.42.36-.04.92-.18,1.67-.38.76-.2,1.54-.56,2.32-1.09.78-.54,1.47-1.32,2.08-2.34s.89-2.43.89-4.22v-37.8c0-.58-.27-.94-.8-1.07-.09,0-.4-.07-.96-.2-.56-.13-1.21-.29-1.92-.47-.71-.18-1.36-.34-1.97-.47s-.98-.22-1.12-.27c-.58-.13-.87-.45-.89-.92-.02-.47.29-.78.96-.96,1.74-.4,3.64-.96,5.67-1.65,2.03-.69,4.06-1.47,6.12-2.34,2.05-.87,4.04-1.81,5.96-2.81,1.92-1.01,3.64-2.01,5.16-3.04.4-.27.83-.38,1.25-.33.42.04.63.38.63,1v9.58c1.56-3.46,3.68-6.03,6.36-7.75,2.68-1.7,5.69-2.55,9.04-2.55h0Z"/>
    <path id="_8" class="cls-2" d="M569.61,502.27c.36.09.63.22.78.42.16.2.2.42.16.65-.04.22-.16.42-.36.6-.2.18-.49.27-.85.27h-24.25c-.49,0-.87-.11-1.16-.33-.29-.22-.45-.58-.45-1.07v-5.9c0-.31-.11-.51-.33-.6-.22-.09-.42-.02-.6.2-.4.49-1.07,1.25-2.01,2.3-.94,1.05-2.23,2.1-3.86,3.15s-3.64,1.97-6.03,2.72-5.2,1.14-8.42,1.14c-3.59,0-6.72-.47-9.4-1.41s-5-2.21-6.94-3.84c-1.94-1.61-3.55-3.44-4.82-5.49-1.27-2.05-2.28-4.22-3.01-6.52-.74-2.28-1.25-4.56-1.54-6.83-.29-2.3-.45-4.44-.45-6.45,0-5,.63-9.56,1.85-13.67,1.23-4.09,3.08-7.59,5.56-10.49,2.48-2.9,5.58-5.16,9.33-6.72,3.73-1.56,8.13-2.34,13.17-2.34,2.81,0,5.25.18,7.3.51,2.08.33,3.77.71,5.11,1.14,1.34.42,2.34.83,3.01,1.21.67.38,1.05.58,1.14.63.22.2.45.25.65.16.2-.11.29-.27.29-.49v-27.13c0-.58-.27-.94-.8-1.07-.09,0-.4-.07-.96-.2-.56-.13-1.21-.29-1.92-.47s-1.36-.33-1.97-.47c-.6-.13-.98-.22-1.12-.27-.58-.13-.87-.45-.89-.92-.02-.47.29-.78.96-.96,1.74-.4,3.64-.96,5.67-1.65,2.03-.69,4.06-1.47,6.12-2.34,2.05-.87,4.04-1.81,5.96-2.81,1.92-1,3.64-2.01,5.16-3.04.4-.27.83-.38,1.25-.33.42.04.63.38.63,1v89.12c0,1.81.36,3.24,1.07,4.35.71,1.09,1.54,1.94,2.46,2.55.92.6,1.81,1.03,2.68,1.27.87.25,1.47.4,1.83.45h0ZM543.35,464.24c0-1.12-.07-2.34-.22-3.68-.16-1.34-.42-2.7-.8-4.06-.38-1.36-.89-2.68-1.54-3.93-.65-1.25-1.47-2.37-2.43-3.35-.98-.98-2.14-1.76-3.48-2.37s-2.88-.92-4.62-.92c-2.61,0-4.87.67-6.74,2.01-1.88,1.34-3.37,3.19-4.53,5.54-1.16,2.34-2.01,5.11-2.55,8.31-.54,3.22-.8,6.65-.8,10.36,0,1,.02,2.32.04,4,.02,1.67.13,3.48.38,5.4.25,1.92.65,3.86,1.18,5.83.54,1.97,1.32,3.75,2.34,5.31,1,1.56,2.32,2.84,3.93,3.84,1.61,1.01,3.59,1.52,5.96,1.52,3.01,0,5.45-.56,7.28-1.67,1.81-1.12,3.22-2.48,4.2-4.09.98-1.61,1.63-3.33,1.94-5.14.31-1.81.47-3.42.47-4.8v-18.11h0Z"/>
    <polygon class="cls-2" points="7.93 559.02 25.92 559.02 25.92 564.59 7.93 564.59 7.93 559.02"/>
    <path id="_1_0" class="cls-2" d="M79.61,538.8h6.37v38.67h-6.57v-21.65l.1-6.41c-.97,1.7-1.8,3.1-2.5,4.21l-8.37,13.2h-4.37l-8.5-13.2c-.88-1.45-1.62-2.68-2.21-3.72l.07,5.92v21.65h-6.59v-38.67h6.41l13.17,20.46,13.01-20.46h0Z"/>
    <path id="_2_1" class="cls-2" d="M108,538.8h7.01v22.87c0,3.43.74,6.1,2.2,7.97,1.47,1.89,3.69,2.84,6.67,2.84s5.27-.94,6.75-2.82c1.48-1.88,2.22-4.54,2.22-8v-22.87h7.01v22.81c0,5.31-1.34,9.47-4.01,12.46-2.67,3-6.67,4.51-11.97,4.51s-9.39-1.46-11.98-4.37c-2.61-2.92-3.9-7.07-3.9-12.46v-22.94h0Z"/>
    <path id="_3_2" class="cls-2" d="M172.51,578.57c-5.32,0-9.59-.82-12.78-2.43v-6.89c3.43,2.15,7.75,3.24,12.98,3.24,5.78,0,8.67-1.76,8.67-5.28,0-1.63-.67-2.92-2.02-3.84-1.35-.93-3.88-1.84-7.59-2.75-4.27-1.08-7.32-2.52-9.16-4.31-1.83-1.79-2.75-4.24-2.75-7.34,0-3.53,1.34-6.3,4.01-8.28,2.67-1.99,6.34-2.98,11-2.98s8.43.65,11.49,1.94v6.19c-3.58-1.36-7.33-2.04-11.25-2.04-5.68,0-8.52,1.59-8.52,4.76,0,1.4.56,2.51,1.7,3.31,1.14.81,3.35,1.63,6.65,2.47,4.82,1.24,8.25,2.77,10.3,4.63,2.07,1.86,3.09,4.41,3.09,7.64,0,3.9-1.35,6.87-4.04,8.91-2.69,2.03-6.63,3.06-11.79,3.06h0Z"/>
    <polygon id="_4_3" class="cls-2" points="208.07 538.8 215.09 538.8 215.09 577.47 208.07 577.47 208.07 538.8"/>
    <path id="_5_4" class="cls-2" d="M254.66,578.57c-6.16,0-10.93-1.76-14.31-5.27-3.38-3.5-5.07-8.37-5.07-14.6,0-6.6,1.82-11.75,5.46-15.45,3.63-3.7,8.49-5.56,14.58-5.56,3.97,0,7.22.57,9.77,1.72v6.31c-2.74-1.29-5.82-1.94-9.22-1.94-4.32,0-7.63,1.27-9.95,3.82-2.32,2.54-3.48,6.2-3.48,10.97,0,4.32,1.12,7.71,3.34,10.17,2.22,2.47,5.4,3.71,9.54,3.71,2.03,0,3.79-.2,5.29-.59,1.5-.39,3.09-1.01,4.77-1.84v6.22c-2.99,1.55-6.57,2.33-10.71,2.33h0Z"/>
    <path id="_6_5" class="cls-2" d="M321.52,578.57c-5.32,0-9.59-.82-12.78-2.43v-6.89c3.43,2.15,7.75,3.24,12.98,3.24,5.78,0,8.67-1.76,8.67-5.28,0-1.63-.67-2.92-2.02-3.84-1.35-.93-3.88-1.84-7.59-2.75-4.27-1.08-7.32-2.52-9.16-4.31-1.83-1.79-2.75-4.24-2.75-7.34,0-3.53,1.34-6.3,4.01-8.28,2.67-1.99,6.34-2.98,11-2.98s8.43.65,11.49,1.94v6.19c-3.58-1.36-7.33-2.04-11.25-2.04-5.68,0-8.52,1.59-8.52,4.76,0,1.4.56,2.51,1.7,3.31,1.14.81,3.35,1.63,6.65,2.47,4.82,1.24,8.25,2.77,10.3,4.63,2.07,1.86,3.09,4.41,3.09,7.64,0,3.9-1.35,6.87-4.04,8.91-2.69,2.03-6.63,3.06-11.79,3.06h0Z"/>
    <polygon id="_7_6" class="cls-2" points="385.4 538.8 385.4 545.04 372.68 545.04 372.68 577.47 365.67 577.47 365.67 545.04 353.04 545.04 353.04 538.8 385.4 538.8"/>
    <path id="_8_7" class="cls-2" d="M405.52,543.22c3.38-3.68,8-5.52,13.86-5.52s10.48,1.83,13.82,5.49c3.35,3.66,5.01,8.63,5.01,14.9s-1.67,11.29-5.01,14.97c-3.34,3.68-7.94,5.52-13.82,5.52s-10.51-1.83-13.87-5.49c-3.37-3.66-5.06-8.63-5.06-14.9s1.69-11.29,5.07-14.97h0ZM419.38,543.85c-3.62,0-6.49,1.27-8.6,3.82-2.11,2.54-3.17,6.04-3.17,10.48s1.05,7.94,3.16,10.48c2.1,2.55,4.97,3.82,8.62,3.82s6.43-1.27,8.55-3.82c2.11-2.54,3.17-6.04,3.17-10.48s-1.06-7.91-3.17-10.47c-2.12-2.55-4.96-3.83-8.55-3.83Z"/>
    <path id="_9" class="cls-2" d="M483.35,565.43l6.02,12.04h-7.8l-5.11-10.33c-.57-1.14-1.28-2.01-2.12-2.6-.83-.6-2.02-.89-3.57-.89h-5.38v13.82h-7.01v-38.67h14.66c4.59,0,8.17,1.01,10.72,3.03,2.55,2.02,3.83,5.03,3.83,9.01,0,2.67-.64,4.96-1.92,6.84-1.28,1.89-3.02,3.34-5.19,4.33,1.05.55,2.01,1.7,2.87,3.42h0ZM465.39,557.6h7.41c2.42,0,4.31-.53,5.68-1.58,1.37-1.06,2.05-2.72,2.05-4.96,0-4.08-2.57-6.11-7.73-6.11h-7.41v12.65Z"/>
    <polygon id="_10" class="cls-2" points="515.68 571.52 534.42 571.52 534.42 577.47 508.67 577.47 508.67 538.8 534.09 538.8 534.09 544.79 515.68 544.79 515.68 554.95 532.25 554.95 532.25 560.9 515.68 560.9 515.68 571.52"/>
    <polygon id="_11" class="cls-2" points="552.6 559.02 570.59 559.02 570.59 564.59 552.6 564.59 552.6 559.02"/>
  </g>
  <rect class="cls-1" width="578.52" height="585.91"/>
</svg>