<?xml version="1.0" encoding="UTF-8"?>
<svg id="Capa_1" xmlns="http://www.w3.org/2000/svg" viewBox="0 0 76.33 78.46">
  <defs>
    <style>
      .cls-1 {
        fill-rule: evenodd;
      }
    </style>
  </defs>
  <path class="cls-1" d="M34.17,34.29c.21-2.98,1.84-5.64,4.23-7.4,3.68-2.7,7.36-5.66,6.94-12.89-.14-2.43,1.98-6.17,4.22-7.19-1.68-1.66-3.43-2.45-5.27-2.37-4.2.18-4.41,3.68-7.21,4.3,1.31-3.58,3.47-5.32,6.38-5.82,2.13-.37,3.97.25,5.21,1.04,1.66,1.06,2.63,2.44,5.66,2.31-5.29,1.58-7.75,5.01-7.38,10.27,1.42.75,2.83,2.12,4.24,4.11,2.04,3.65,2.32,7.41.84,11.27-1.62,4.23-8.79,12.72-13.98,10.16,2.72-.9,4.99-2.1,6.81-3.62,6.35-5.82,8.01-11.41,4.98-16.77,1.07,5.91-.53,10.69-4.81,14.32-6.46,5.22-13.4,4.01-21.61,1.75,5.68,10.65,29.7,10.38,32.31-8.28.44-4.98-.85-9.03-3.87-12.16-2.06-2.72-2.15-5.15-.29-7.29,2.93-2.82,7.47-4.21,13.61-4.19-1.43-.73-3.12-1.27-5.08-1.63-1.21-.22-3.43-.1-5.34-.4-2.39-.38-3.09-1.52-5.12-2.54-4.04-2.02-7.99-1.68-11.84,1.01-2.38,1.95-3.82,4.47-4.34,7.55-9.49,5.96-12.35,19.69-3.71,27.68,13.19-.28,23.18-11.73,16.89-18.19-.79,5.79-4.94,10.77-12.47,14.94h0ZM73.92,16.44c1.33,0,2.41,1.08,2.41,2.41s-1.08,2.41-2.41,2.41h-1.43l-2.04,18.34c-.6,5.43-1.59,8.82-3.97,11.14-2.39,2.32-5.8,3.22-11.24,3.67l-29.8,2.48-.04.09c-.29.64-.67,1.25-1.11,1.82l-1.89,2.44c.38.28.73.59,1.06.92h0c1.19,1.19,2.06,2.69,2.5,4.35h20.83c.43-1.67,1.31-3.17,2.49-4.35,1.73-1.73,4.12-2.8,6.76-2.8s5.01,1.07,6.74,2.79h.02c1.73,1.75,2.8,4.14,2.8,6.76s-1.07,5.01-2.79,6.74v.02c-1.75,1.73-4.14,2.8-6.76,2.8s-4.88-1.01-6.6-2.66l-.15-.14c-1.19-1.19-2.06-2.68-2.49-4.35h-20.83c-.43,1.66-1.31,3.15-2.49,4.34v.02c-1.75,1.73-4.14,2.8-6.76,2.8s-4.88-1.01-6.6-2.66l-.15-.14c-1.73-1.73-2.8-4.12-2.8-6.76s1.07-5.03,2.8-6.76c1.73-1.73,4.12-2.8,6.76-2.8.35,0,.7.02,1.04.06l2.75-3.54c.21-.27.39-.58.54-.9.15-.32.26-.65.33-.99.07-.35.11-.7.1-1.05,0-.32-.06-.67-.15-1.03h0S10.68,10.55,10.68,10.55c-.27-1.05-.9-1.95-1.74-2.59-.85-.64-1.92-1.02-3.08-1.02h-3.45c-1.33,0-2.41-1.08-2.41-2.41s1.08-2.41,2.41-2.41h3.45c2.22,0,4.3.74,5.98,2.01,1.68,1.28,2.94,3.09,3.49,5.22l1.82,7.07h2.25c1.33,0,2.41,1.08,2.41,2.41s-1.08,2.41-2.41,2.41h-1.01l7.59,29.46h0c.11.41.18.85.23,1.29l28.64-2.39c4.31-.36,6.88-.94,8.29-2.32,1.42-1.38,2.07-3.93,2.54-8.22l1.98-17.82h-.73c-1.33,0-2.41-1.08-2.41-2.41s1.08-2.41,2.41-2.41h6.99ZM51.3,68.89v.04c0,1.3.54,2.48,1.39,3.34l.1.11c.84.8,1.99,1.28,3.26,1.28s2.5-.53,3.36-1.38h0c.85-.86,1.38-2.05,1.38-3.37s-.53-2.5-1.38-3.36h0c-.85-.86-2.04-1.39-3.36-1.39s-2.5.53-3.36,1.39-1.38,2.03-1.39,3.34h0ZM16.71,73.65c1.32,0,2.5-.53,3.36-1.38h0c.85-.86,1.38-2.05,1.38-3.37s-.53-2.5-1.38-3.36h0s0,0,0,0c-.86-.86-2.05-1.39-3.36-1.39s-2.5.53-3.36,1.39c-.86.86-1.39,2.05-1.39,3.36s.53,2.5,1.39,3.36l.1.11c.84.8,1.99,1.28,3.26,1.28h0ZM45.39,5.62c.86,0,1.55.69,1.55,1.55s-.69,1.55-1.55,1.55-1.55-.69-1.55-1.55.69-1.55,1.55-1.55ZM51.79,42.85c.68.27,1.57-.43,1.98-.71,8.53-5.97,12.31-17.91,6.68-27.13-.33-.53-.71-1.34-1.16-1.61-.77-.46-1.64.28-1.44,1.12.07.27.83,1.42,1.03,1.79,4.25,7.82,1.75,18.54-5.5,23.7-.94.67-2.2,1.22-2.16,2.04.02.35.32.7.57.8h0ZM28.75,31.18c-1.81-2.91-2.25-6.07-1.49-9.3.77-3.3,1.63-4.4,3.29-6.72,2.9-3.8,8.04-4.21,11.86-8.12,1.12,5.83.05,9.86-3.21,12.08,2.69-.59,4.13,2.27.74,2.86-1.72.3-3.05,1.01-4.07,1.96-3.47,3.25-4.16,7.34-3.21,10.36-4.55-4.44-1.97-10.33,2.45-14.4,1.58-1.45,3.75-2.11,4.59-3.53,1.24-2.1,1.68-4.15,1.31-6.17-.92.89-2.81,1.95-5.68,3.18,1.31-.32,2.15,0,2.54.97.51,2.08-2.08,1.79-3.38,2.48-4.4,2.32-6.51,6.81-5.73,14.34h0ZM56.46,10.32c.52,0,.94.42.94.94s-.42.94-.94.94-.94-.42-.94-.94.42-.94.94-.94ZM58.3,25.62c.41,0,.75.34.75.75s-.34.75-.75.75-.75-.34-.75-.75.34-.75.75-.75ZM57.79,29.68c.32,0,.57.26.57.57s-.26.57-.57.57-.57-.26-.57-.57.26-.57.57-.57Z"/>
</svg>