<?xml version="1.0" encoding="UTF-8"?>
<svg id="Capa_1" xmlns="http://www.w3.org/2000/svg" viewBox="0 0 218.81 205.77">
  <defs>
    <style>
      .cls-1 {
        fill: #639;
      }
    </style>
  </defs>
  <g id="Capa_x5F_1">
    <g id="_2727585542096">
      <path d="M93.19,0C57.05,0,27.99,28.7,27.99,64.85c0,10.63,2.48,21.26,7.44,30.47,4.96,9.57,12.4,17.36,21.26,23.39C23.39,132.88,0,165.84,0,204.11h18.78c0-40.75,33.66-74.06,74.41-74.06s65.2-28.7,65.2-64.85S129.69,0,93.19,0h0ZM93.19,18.78c26.22,0,46.42,20.55,46.42,46.42s-20.55,46.42-46.42,46.42-46.42-20.55-46.42-46.42,20.55-46.42,46.42-46.42Z"/>
      <path class="cls-1" d="M198.79,83.27l-11.34,11.34c-1.06,1.06-1.77,2.13-2.13,3.19l-2.84,8.86-18.43,18.43c-2.84-2.13-6.38-3.9-9.92-4.61-8.15-1.77-16.3,0-21.97,5.32-2.13,2.13-3.9,4.96-4.96,8.15-1.42,4.61-5.67,7.8-10.28,8.5-5.67.71-10.98,2.84-15.24,7.09-10.98,10.98-9.21,31.18,4.25,44.65,13.47,13.47,33.31,15.59,44.65,4.25,4.25-4.25,6.38-9.57,7.09-15.24.35-4.61,3.9-8.86,8.5-10.28,3.19-1.06,6.02-2.48,8.15-4.96,5.67-5.67,7.09-13.82,5.32-21.97-.71-3.54-2.48-6.73-4.61-9.92l18.43-18.43,8.86-2.84c1.42-.36,2.48-1.06,3.19-2.13l11.34-11.34c7.63-6.58-9.06-26.09-18.07-18.07h0ZM145.04,141.85c7.02,0,12.72,5.69,12.72,12.72s-5.69,12.72-12.72,12.72-12.72-5.69-12.72-12.72,5.69-12.72,12.72-12.72Z"/>
    </g>
  </g>
</svg>