<?xml version="1.0" encoding="UTF-8"?>
<svg id="Capa_1" xmlns="http://www.w3.org/2000/svg" viewBox="0 0 380.21 380.21">
  <defs>
    <style>
      .cls-1 {
        fill: none;
        stroke: #1d1d1b;
        stroke-miterlimit: 10;
        stroke-width: 10px;
      }

      .cls-2 {
        fill-rule: evenodd;
      }
    </style>
  </defs>
  <g id="_2228145080928">
    <path class="cls-2" d="M128.03,262.75c1.29-18.27,11.27-34.6,25.91-45.34,22.57-16.56,45.14-34.69,42.53-79.01-.88-14.87,12.11-37.81,25.85-44.05-10.28-10.17-21.06-15.01-32.33-14.52-25.78,1.12-27.01,22.57-44.18,26.39,8.06-21.92,21.28-32.58,39.14-35.65,13.04-2.24,24.35,1.56,31.92,6.39,10.16,6.48,16.12,14.94,34.72,14.19-32.45,9.71-47.53,30.7-45.24,62.98,8.7,4.58,17.37,12.98,26.01,25.19,12.51,22.41,14.22,45.44,5.14,69.1-9.96,25.95-53.9,77.99-85.71,62.3,16.65-5.49,30.57-12.9,41.75-22.21,38.92-35.67,49.09-69.95,30.52-102.84,6.55,36.26-3.27,65.53-29.47,87.8-39.6,32.02-82.16,24.6-132.48,10.73,34.85,65.3,182.06,63.67,198.06-50.75,2.69-30.54-5.23-55.39-23.75-74.55-12.62-16.67-13.2-31.57-1.76-44.71,17.97-17.27,45.78-25.83,83.43-25.69-8.75-4.48-19.13-7.81-31.13-9.97-7.41-1.34-21-.61-32.72-2.48-14.66-2.34-18.91-9.32-31.37-15.55-24.76-12.37-48.97-10.31-72.62,6.18-14.58,11.97-23.44,27.4-26.58,46.29-58.18,36.52-75.7,120.71-22.71,169.7,80.83-1.71,142.1-71.91,103.56-111.52-4.82,35.49-30.31,66.02-76.47,91.6h-.02ZM196.81,86.97c5.25,0,9.5,4.25,9.5,9.5s-4.25,9.5-9.5,9.5-9.5-4.25-9.5-9.5,4.25-9.5,9.5-9.5ZM236.06,315.23c4.2,1.63,9.64-2.62,12.12-4.36,52.27-36.63,75.48-109.82,40.93-166.35-1.99-3.26-4.33-8.2-7.09-9.86-4.73-2.85-10.07,1.72-8.83,6.85.41,1.68,5.06,8.69,6.32,11,26.06,47.92,10.73,113.69-33.75,145.31-5.75,4.09-13.49,7.46-13.23,12.5.11,2.13,1.96,4.3,3.52,4.9h.01ZM94.79,243.73c-11.09-17.81-13.77-37.2-9.11-57.04,4.75-20.22,10-26.95,20.17-41.2,17.77-23.32,49.31-25.81,72.68-49.78,6.89,35.74.33,60.42-19.68,74.05,16.49-3.61,25.3,13.93,4.53,17.55-10.51,1.83-18.69,6.16-24.96,12.04-21.25,19.92-25.5,45.03-19.68,63.54-27.87-27.24-12.1-63.33,15-88.27,9.69-8.92,22.97-12.94,28.13-21.64,7.63-12.85,10.31-25.45,8.04-37.81-5.61,5.46-17.22,11.96-34.82,19.52,8-1.98,13.19,0,15.55,5.92,3.11,12.74-12.78,10.98-20.72,15.18-26.98,14.23-39.89,41.75-35.13,87.95h0ZM264.71,115.82c3.17,0,5.74,2.57,5.74,5.74s-2.57,5.74-5.74,5.74-5.74-2.57-5.74-5.74,2.57-5.74,5.74-5.74ZM275.95,209.59c2.54,0,4.59,2.06,4.59,4.59s-2.06,4.59-4.59,4.59-4.59-2.06-4.59-4.59,2.06-4.59,4.59-4.59ZM272.82,234.52c1.94,0,3.52,1.58,3.52,3.52s-1.58,3.52-3.52,3.52-3.52-1.58-3.52-3.52,1.58-3.52,3.52-3.52Z"/>
    <circle class="cls-1" cx="190.1" cy="190.1" r="185.1"/>
  </g>
</svg>